<?xml version="1.0" encoding="UTF-8"?>
<svg xmlns="http://www.w3.org/2000/svg" viewBox="0 0 512 512" role="img" aria-labelledby="title">
  <title id="title">KodaX Manta Pulse app icon</title>
  <defs>
    <radialGradient id="bg" cx="50%" cy="30%" r="80%">
      <stop offset="0" stop-color="#10283D"/><stop offset="1" stop-color="#05080D"/>
    </radialGradient>
    <filter id="soft-glow" x="-50%" y="-50%" width="200%" height="200%">
      <feGaussianBlur stdDeviation="8" result="blur"/>
      <feMerge><feMergeNode in="blur"/><feMergeNode in="SourceGraphic"/></feMerge>
    </filter>
    <linearGradient id="wl" x1="14" y1="120" x2="128" y2="120" gradientUnits="userSpaceOnUse">
      <stop stop-color="#00ECFF"/><stop offset=".62" stop-color="#0A7CFF"/><stop offset="1" stop-color="#081420"/>
    </linearGradient>
    <linearGradient id="wr" x1="128" y1="120" x2="242" y2="120" gradientUnits="userSpaceOnUse">
      <stop stop-color="#081420"/><stop offset=".5" stop-color="#0A7CFF"/><stop offset="1" stop-color="#00ECFF"/>
    </linearGradient>
  </defs>
  <rect x="24" y="24" width="464" height="464" rx="108" fill="url(#bg)"/>
  <g transform="translate(64 50) scale(1.5)" filter="url(#soft-glow)">
    <path d="M128 36 C108 55 96 78 76 94 C58 109 34 116 14 120 C38 125 60 134 82 148 C101 161 116 176 128 190 C124 148 124 86 128 36 Z" fill="url(#wl)"/>
    <path d="M128 36 C148 55 160 78 180 94 C198 109 222 116 242 120 C218 125 196 134 174 148 C155 161 140 176 128 190 C132 148 132 86 128 36 Z" fill="url(#wr)"/>
    <path d="M128 36 C108 55 96 78 76 94 C58 109 34 116 14 120 C38 125 60 134 82 148 C101 161 116 176 128 190 C140 176 155 161 174 148 C196 134 218 125 242 120 C222 116 198 109 180 94 C160 78 148 55 128 36 Z" fill="none" stroke="#00ECFF" stroke-opacity=".8" stroke-width="2.4"/>
    <path d="M128 52 L128 194" fill="none" stroke="#6EFFF0" stroke-width="3.4" stroke-linecap="round"/>
    <path d="M128 112 C128 145 124 177 128 198 C131 216 144 222 150 230 C154 235 156 240 154 246" fill="none" stroke="#00ECFF" stroke-width="3.4" stroke-linecap="round"/>
    <path d="M128 74 C130 89 136 98 148 104 C136 109 130 119 128 136 C126 119 120 109 108 104 C120 98 126 89 128 74 Z" fill="#F5FBFF"/>
  </g>
</svg>
