<?xml version="1.0" encoding="UTF-8"?>
<svg xmlns="http://www.w3.org/2000/svg" viewBox="0 0 256 256" role="img" aria-labelledby="title desc" style="">
  <title id="title">KodaX Manta Pulse — sonar scan</title>
  <desc id="desc">Animated KodaX Manta Pulse logo. Motion is disabled when reduced motion is requested.</desc>
  <defs>
  <linearGradient id="wing-left" x1="16" y1="112" x2="132" y2="112" gradientUnits="userSpaceOnUse">
    <stop offset="0" stop-color="#00ECFF"/>
    <stop offset="0.58" stop-color="#0A7CFF"/>
    <stop offset="1" stop-color="#081420"/>
  </linearGradient>
  <linearGradient id="wing-right" x1="124" y1="112" x2="242" y2="112" gradientUnits="userSpaceOnUse">
    <stop offset="0" stop-color="#081420"/>
    <stop offset="0.48" stop-color="#0A7CFF"/>
    <stop offset="1" stop-color="#00ECFF"/>
  </linearGradient>
  <linearGradient id="spine-gradient" x1="128" y1="50" x2="128" y2="246" gradientUnits="userSpaceOnUse">
    <stop offset="0" stop-color="#F5FBFF"/>
    <stop offset="0.38" stop-color="#6EFFF0"/>
    <stop offset="1" stop-color="#00ECFF"/>
  </linearGradient>
  <filter id="glow" x="-80%" y="-80%" width="260%" height="260%">
    <feGaussianBlur stdDeviation="4" result="blur"/>
    <feMerge><feMergeNode in="blur"/><feMergeNode in="SourceGraphic"/></feMerge>
  </filter>
  <filter id="wide-glow" x="-100%" y="-100%" width="300%" height="300%">
    <feGaussianBlur stdDeviation="8" result="blur"/>
    <feMerge><feMergeNode in="blur"/><feMergeNode in="SourceGraphic"/></feMerge>
  </filter>
</defs>
  <style>
  :root { --accent:#00ECFF; --secondary:#0A7CFF; --light:#6EFFF0; }
  #manta, #wing-left, #wing-right, #core, #tail, .ring, .orbit, .spark, .satellite, .burst { transform-box:view-box; }
  #manta { transform-origin:128px 120px; }
  #wing-left, #wing-right { transform-origin:128px 120px; }
  #core { transform-origin:128px 104px; }
  #tail { transform-origin:128px 116px; }
  .ring { transform-origin:128px 206px; }
  @media (prefers-reduced-motion: reduce) { * { animation:none !important; } }


  #core { animation:scan-core 1.2s ease-in-out infinite; }
  .ring { transform-origin:128px 202px; animation:scan-ring 2.2s ease-out infinite; }
  .r2{animation-delay:.55s}.r3{animation-delay:1.1s}.r4{animation-delay:1.65s}
  #manta { animation:hover 2.2s ease-in-out infinite; }
  @keyframes scan-core { 0%,100%{transform:scale(.8)} 35%{transform:scale(1.25)} }
  @keyframes scan-ring { 0%{transform:scale(.2);opacity:0} 14%{opacity:.7} 100%{transform:scale(1.55);opacity:0} }
  @keyframes hover { 0%,100%{transform:translateY(1px)} 50%{transform:translateY(-3px)} }
</style>
  <g fill="none" stroke="#00ECFF" stroke-width="1.5">
  <ellipse class="ring r1" cx="128" cy="202" rx="36" ry="9"/>
  <ellipse class="ring r2" cx="128" cy="202" rx="36" ry="9"/>
  <ellipse class="ring r3" cx="128" cy="202" rx="36" ry="9"/>
  <ellipse class="ring r4" cx="128" cy="202" rx="36" ry="9"/>
</g>
  <g id="manta" filter="url(#glow)">
  <path id="wing-left" d="M128 36 C108 55 96 78 76 94 C58 109 34 116 14 120 C38 125 60 134 82 148 C101 161 116 176 128 190 C124 148 124 86 128 36 Z" fill="url(#wing-left)"/>
  <path id="wing-right" d="M128 36 C148 55 160 78 180 94 C198 109 222 116 242 120 C218 125 196 134 174 148 C155 161 140 176 128 190 C132 148 132 86 128 36 Z" fill="url(#wing-right)"/>
  <path id="outline" d="M128 36 C108 55 96 78 76 94 C58 109 34 116 14 120 C38 125 60 134 82 148 C101 161 116 176 128 190 C140 176 155 161 174 148 C196 134 218 125 242 120 C222 116 198 109 180 94 C160 78 148 55 128 36 Z" fill="none" stroke="#00ECFF" stroke-opacity=".75" stroke-width="2.4" stroke-linecap="round" stroke-linejoin="round"/>
  <path id="spine" d="M128 52 L128 194" fill="none" stroke="url(#spine-gradient)" stroke-width="3.2" stroke-linecap="round"/>
  <path id="tail" d="M128 112 C128 145 124 177 128 198 C131 216 144 222 150 230 C154 235 156 240 154 246" fill="none" stroke="url(#spine-gradient)" stroke-width="3.2" stroke-linecap="round"/>
  <path id="core" d="M128 74 C130 89 136 98 148 104 C136 109 130 119 128 136 C126 119 120 109 108 104 C120 98 126 89 128 74 Z" fill="#6EFFF0"/>
</g>
  
</svg>
